<mxfile host="app.diagrams.net" modified="2023-11-21T01:26:35.608Z" agent="Mozilla/5.0 (Windows NT 10.0; Win64; x64) AppleWebKit/537.36 (KHTML, like Gecko) Chrome/119.0.0.0 Safari/537.36" etag="B8Qa-d80vrFpsM7XRhi1" version="22.1.3" type="device">
  <diagram id="C5RBs43oDa-KdzZeNtuy" name="Page-1">
    <mxGraphModel dx="880" dy="426" grid="1" gridSize="10" guides="1" tooltips="1" connect="1" arrows="1" fold="1" page="1" pageScale="1" pageWidth="827" pageHeight="1169" math="0" shadow="0">
      <root>
        <mxCell id="WIyWlLk6GJQsqaUBKTNV-0" />
        <mxCell id="WIyWlLk6GJQsqaUBKTNV-1" parent="WIyWlLk6GJQsqaUBKTNV-0" />
        <mxCell id="WIyWlLk6GJQsqaUBKTNV-2" value="" style="rounded=0;html=1;jettySize=auto;orthogonalLoop=1;fontSize=11;endArrow=block;endFill=0;endSize=8;strokeWidth=1;shadow=0;labelBackgroundColor=none;edgeStyle=orthogonalEdgeStyle;entryX=0.5;entryY=0;entryDx=0;entryDy=0;" parent="WIyWlLk6GJQsqaUBKTNV-1" source="WIyWlLk6GJQsqaUBKTNV-3" target="Fx8KJg7VZILLiWFmlo5e-0" edge="1">
          <mxGeometry relative="1" as="geometry">
            <mxPoint x="15" y="170" as="targetPoint" />
          </mxGeometry>
        </mxCell>
        <mxCell id="WIyWlLk6GJQsqaUBKTNV-3" value="Iniício" style="rounded=1;whiteSpace=wrap;html=1;fontSize=12;glass=0;strokeWidth=1;shadow=0;fillColor=#dae8fc;strokeColor=#6c8ebf;" parent="WIyWlLk6GJQsqaUBKTNV-1" vertex="1">
          <mxGeometry x="125" y="10" width="120" height="40" as="geometry" />
        </mxCell>
        <mxCell id="WIyWlLk6GJQsqaUBKTNV-11" value="Fim" style="rounded=1;whiteSpace=wrap;html=1;fontSize=12;glass=0;strokeWidth=1;shadow=0;fillColor=#dae8fc;strokeColor=#6c8ebf;" parent="WIyWlLk6GJQsqaUBKTNV-1" vertex="1">
          <mxGeometry x="125" y="1240" width="120" height="40" as="geometry" />
        </mxCell>
        <mxCell id="Fx8KJg7VZILLiWFmlo5e-5" value="" style="edgeStyle=orthogonalEdgeStyle;rounded=0;orthogonalLoop=1;jettySize=auto;html=1;" edge="1" parent="WIyWlLk6GJQsqaUBKTNV-1" source="Fx8KJg7VZILLiWFmlo5e-0" target="Fx8KJg7VZILLiWFmlo5e-4">
          <mxGeometry relative="1" as="geometry" />
        </mxCell>
        <mxCell id="Fx8KJg7VZILLiWFmlo5e-0" value="Pedir Saldo&lt;span style=&quot;white-space: pre;&quot;&gt;&#x9;&lt;/span&gt;" style="shape=manualInput;whiteSpace=wrap;html=1;rounded=1;" vertex="1" parent="WIyWlLk6GJQsqaUBKTNV-1">
          <mxGeometry x="130" y="100" width="110" height="60" as="geometry" />
        </mxCell>
        <mxCell id="Fx8KJg7VZILLiWFmlo5e-16" value="" style="edgeStyle=orthogonalEdgeStyle;rounded=0;orthogonalLoop=1;jettySize=auto;html=1;" edge="1" parent="WIyWlLk6GJQsqaUBKTNV-1" source="Fx8KJg7VZILLiWFmlo5e-1" target="Fx8KJg7VZILLiWFmlo5e-2">
          <mxGeometry relative="1" as="geometry" />
        </mxCell>
        <mxCell id="Fx8KJg7VZILLiWFmlo5e-1" value="Tipo de Entrada" style="shape=manualInput;whiteSpace=wrap;html=1;rounded=1;" vertex="1" parent="WIyWlLk6GJQsqaUBKTNV-1">
          <mxGeometry x="130" y="370" width="110" height="60" as="geometry" />
        </mxCell>
        <mxCell id="Fx8KJg7VZILLiWFmlo5e-20" value="" style="edgeStyle=orthogonalEdgeStyle;rounded=0;orthogonalLoop=1;jettySize=auto;html=1;" edge="1" parent="WIyWlLk6GJQsqaUBKTNV-1" source="Fx8KJg7VZILLiWFmlo5e-2" target="Fx8KJg7VZILLiWFmlo5e-17">
          <mxGeometry relative="1" as="geometry" />
        </mxCell>
        <mxCell id="Fx8KJg7VZILLiWFmlo5e-2" value="Quantidade" style="shape=manualInput;whiteSpace=wrap;html=1;rounded=1;" vertex="1" parent="WIyWlLk6GJQsqaUBKTNV-1">
          <mxGeometry x="130" y="460" width="110" height="60" as="geometry" />
        </mxCell>
        <mxCell id="Fx8KJg7VZILLiWFmlo5e-13" style="edgeStyle=orthogonalEdgeStyle;rounded=0;orthogonalLoop=1;jettySize=auto;html=1;entryX=1;entryY=0.75;entryDx=0;entryDy=0;" edge="1" parent="WIyWlLk6GJQsqaUBKTNV-1" source="Fx8KJg7VZILLiWFmlo5e-4" target="Fx8KJg7VZILLiWFmlo5e-9">
          <mxGeometry relative="1" as="geometry">
            <mxPoint x="345" y="220" as="targetPoint" />
            <Array as="points">
              <mxPoint x="375" y="223" />
            </Array>
          </mxGeometry>
        </mxCell>
        <mxCell id="Fx8KJg7VZILLiWFmlo5e-4" value="&quot;Saldo Incial de &quot; + saldo" style="shape=display;whiteSpace=wrap;html=1;" vertex="1" parent="WIyWlLk6GJQsqaUBKTNV-1">
          <mxGeometry x="305" y="100" width="120" height="60" as="geometry" />
        </mxCell>
        <mxCell id="Fx8KJg7VZILLiWFmlo5e-12" value="" style="edgeStyle=orthogonalEdgeStyle;rounded=0;orthogonalLoop=1;jettySize=auto;html=1;" edge="1" parent="WIyWlLk6GJQsqaUBKTNV-1" source="Fx8KJg7VZILLiWFmlo5e-9" target="Fx8KJg7VZILLiWFmlo5e-11">
          <mxGeometry relative="1" as="geometry" />
        </mxCell>
        <mxCell id="Fx8KJg7VZILLiWFmlo5e-9" value="Encerrar = &quot;n&quot;" style="rounded=1;whiteSpace=wrap;html=1;" vertex="1" parent="WIyWlLk6GJQsqaUBKTNV-1">
          <mxGeometry x="130" y="200" width="110" height="30" as="geometry" />
        </mxCell>
        <mxCell id="Fx8KJg7VZILLiWFmlo5e-10" style="edgeStyle=orthogonalEdgeStyle;rounded=0;orthogonalLoop=1;jettySize=auto;html=1;exitX=0.25;exitY=0;exitDx=0;exitDy=0;entryX=0.173;entryY=0.033;entryDx=0;entryDy=0;entryPerimeter=0;" edge="1" parent="WIyWlLk6GJQsqaUBKTNV-1" source="Fx8KJg7VZILLiWFmlo5e-9" target="Fx8KJg7VZILLiWFmlo5e-9">
          <mxGeometry relative="1" as="geometry" />
        </mxCell>
        <mxCell id="Fx8KJg7VZILLiWFmlo5e-24" value="" style="edgeStyle=orthogonalEdgeStyle;rounded=0;orthogonalLoop=1;jettySize=auto;html=1;" edge="1" parent="WIyWlLk6GJQsqaUBKTNV-1" source="Fx8KJg7VZILLiWFmlo5e-11" target="Fx8KJg7VZILLiWFmlo5e-1">
          <mxGeometry relative="1" as="geometry" />
        </mxCell>
        <mxCell id="Fx8KJg7VZILLiWFmlo5e-48" style="edgeStyle=orthogonalEdgeStyle;rounded=0;orthogonalLoop=1;jettySize=auto;html=1;entryX=1.008;entryY=0.617;entryDx=0;entryDy=0;entryPerimeter=0;" edge="1" parent="WIyWlLk6GJQsqaUBKTNV-1" source="Fx8KJg7VZILLiWFmlo5e-11" target="Fx8KJg7VZILLiWFmlo5e-46">
          <mxGeometry relative="1" as="geometry">
            <mxPoint x="800" y="1170" as="targetPoint" />
            <Array as="points">
              <mxPoint x="800" y="300" />
              <mxPoint x="800" y="1157" />
            </Array>
          </mxGeometry>
        </mxCell>
        <mxCell id="Fx8KJg7VZILLiWFmlo5e-11" value="Encerrar = &quot;n&quot;" style="rhombus;whiteSpace=wrap;html=1;" vertex="1" parent="WIyWlLk6GJQsqaUBKTNV-1">
          <mxGeometry x="135" y="260" width="100" height="80" as="geometry" />
        </mxCell>
        <mxCell id="Fx8KJg7VZILLiWFmlo5e-26" value="" style="edgeStyle=orthogonalEdgeStyle;rounded=0;orthogonalLoop=1;jettySize=auto;html=1;" edge="1" parent="WIyWlLk6GJQsqaUBKTNV-1" source="Fx8KJg7VZILLiWFmlo5e-17" target="Fx8KJg7VZILLiWFmlo5e-18">
          <mxGeometry relative="1" as="geometry" />
        </mxCell>
        <mxCell id="Fx8KJg7VZILLiWFmlo5e-29" value="" style="edgeStyle=orthogonalEdgeStyle;rounded=0;orthogonalLoop=1;jettySize=auto;html=1;" edge="1" parent="WIyWlLk6GJQsqaUBKTNV-1" source="Fx8KJg7VZILLiWFmlo5e-17" target="Fx8KJg7VZILLiWFmlo5e-28">
          <mxGeometry relative="1" as="geometry" />
        </mxCell>
        <mxCell id="Fx8KJg7VZILLiWFmlo5e-17" value="Tipo de Entrada = 1" style="rhombus;whiteSpace=wrap;html=1;" vertex="1" parent="WIyWlLk6GJQsqaUBKTNV-1">
          <mxGeometry x="120" y="560" width="130" height="80" as="geometry" />
        </mxCell>
        <mxCell id="Fx8KJg7VZILLiWFmlo5e-34" value="" style="edgeStyle=orthogonalEdgeStyle;rounded=0;orthogonalLoop=1;jettySize=auto;html=1;" edge="1" parent="WIyWlLk6GJQsqaUBKTNV-1" source="Fx8KJg7VZILLiWFmlo5e-18" target="Fx8KJg7VZILLiWFmlo5e-32">
          <mxGeometry relative="1" as="geometry" />
        </mxCell>
        <mxCell id="Fx8KJg7VZILLiWFmlo5e-18" value="Tipo de Entrada =2" style="rhombus;whiteSpace=wrap;html=1;" vertex="1" parent="WIyWlLk6GJQsqaUBKTNV-1">
          <mxGeometry x="120" y="720" width="130" height="80" as="geometry" />
        </mxCell>
        <mxCell id="Fx8KJg7VZILLiWFmlo5e-27" style="edgeStyle=orthogonalEdgeStyle;rounded=0;orthogonalLoop=1;jettySize=auto;html=1;" edge="1" parent="WIyWlLk6GJQsqaUBKTNV-1" source="Fx8KJg7VZILLiWFmlo5e-19">
          <mxGeometry relative="1" as="geometry">
            <mxPoint x="205" y="680" as="targetPoint" />
            <Array as="points">
              <mxPoint x="385" y="680" />
              <mxPoint x="206" y="680" />
            </Array>
          </mxGeometry>
        </mxCell>
        <mxCell id="Fx8KJg7VZILLiWFmlo5e-19" value="&quot;Entrada:&amp;nbsp; &quot; + quantidade" style="shape=display;whiteSpace=wrap;html=1;" vertex="1" parent="WIyWlLk6GJQsqaUBKTNV-1">
          <mxGeometry x="425" y="570" width="120" height="60" as="geometry" />
        </mxCell>
        <mxCell id="Fx8KJg7VZILLiWFmlo5e-39" style="edgeStyle=orthogonalEdgeStyle;rounded=0;orthogonalLoop=1;jettySize=auto;html=1;" edge="1" parent="WIyWlLk6GJQsqaUBKTNV-1" source="Fx8KJg7VZILLiWFmlo5e-25">
          <mxGeometry relative="1" as="geometry">
            <mxPoint x="200" y="910" as="targetPoint" />
            <Array as="points">
              <mxPoint x="730" y="910" />
            </Array>
          </mxGeometry>
        </mxCell>
        <mxCell id="Fx8KJg7VZILLiWFmlo5e-25" value="&quot;Saída:&amp;nbsp; &quot; + quantidade" style="shape=display;whiteSpace=wrap;html=1;" vertex="1" parent="WIyWlLk6GJQsqaUBKTNV-1">
          <mxGeometry x="670" y="730" width="120" height="60" as="geometry" />
        </mxCell>
        <mxCell id="Fx8KJg7VZILLiWFmlo5e-30" value="" style="edgeStyle=orthogonalEdgeStyle;rounded=0;orthogonalLoop=1;jettySize=auto;html=1;" edge="1" parent="WIyWlLk6GJQsqaUBKTNV-1" source="Fx8KJg7VZILLiWFmlo5e-28" target="Fx8KJg7VZILLiWFmlo5e-19">
          <mxGeometry relative="1" as="geometry" />
        </mxCell>
        <mxCell id="Fx8KJg7VZILLiWFmlo5e-33" style="edgeStyle=orthogonalEdgeStyle;rounded=0;orthogonalLoop=1;jettySize=auto;html=1;exitX=1;exitY=0.5;exitDx=0;exitDy=0;" edge="1" parent="WIyWlLk6GJQsqaUBKTNV-1" source="Fx8KJg7VZILLiWFmlo5e-28" target="Fx8KJg7VZILLiWFmlo5e-19">
          <mxGeometry relative="1" as="geometry" />
        </mxCell>
        <mxCell id="Fx8KJg7VZILLiWFmlo5e-28" value="saldo = saldo + quantidade" style="rounded=1;whiteSpace=wrap;html=1;" vertex="1" parent="WIyWlLk6GJQsqaUBKTNV-1">
          <mxGeometry x="275" y="570" width="120" height="60" as="geometry" />
        </mxCell>
        <mxCell id="Fx8KJg7VZILLiWFmlo5e-36" value="" style="edgeStyle=orthogonalEdgeStyle;rounded=0;orthogonalLoop=1;jettySize=auto;html=1;" edge="1" parent="WIyWlLk6GJQsqaUBKTNV-1" source="Fx8KJg7VZILLiWFmlo5e-31" target="Fx8KJg7VZILLiWFmlo5e-25">
          <mxGeometry relative="1" as="geometry" />
        </mxCell>
        <mxCell id="Fx8KJg7VZILLiWFmlo5e-31" value="saldo = saldo - quantidade" style="rounded=1;whiteSpace=wrap;html=1;" vertex="1" parent="WIyWlLk6GJQsqaUBKTNV-1">
          <mxGeometry x="490" y="730" width="120" height="60" as="geometry" />
        </mxCell>
        <mxCell id="Fx8KJg7VZILLiWFmlo5e-35" value="" style="edgeStyle=orthogonalEdgeStyle;rounded=0;orthogonalLoop=1;jettySize=auto;html=1;" edge="1" parent="WIyWlLk6GJQsqaUBKTNV-1" source="Fx8KJg7VZILLiWFmlo5e-32" target="Fx8KJg7VZILLiWFmlo5e-31">
          <mxGeometry relative="1" as="geometry" />
        </mxCell>
        <mxCell id="Fx8KJg7VZILLiWFmlo5e-38" value="" style="edgeStyle=orthogonalEdgeStyle;rounded=0;orthogonalLoop=1;jettySize=auto;html=1;" edge="1" parent="WIyWlLk6GJQsqaUBKTNV-1" source="Fx8KJg7VZILLiWFmlo5e-32" target="Fx8KJg7VZILLiWFmlo5e-37">
          <mxGeometry relative="1" as="geometry" />
        </mxCell>
        <mxCell id="Fx8KJg7VZILLiWFmlo5e-32" value="saldo &amp;lt; quantidade" style="rhombus;whiteSpace=wrap;html=1;" vertex="1" parent="WIyWlLk6GJQsqaUBKTNV-1">
          <mxGeometry x="320" y="720" width="130" height="80" as="geometry" />
        </mxCell>
        <mxCell id="Fx8KJg7VZILLiWFmlo5e-40" style="edgeStyle=orthogonalEdgeStyle;rounded=0;orthogonalLoop=1;jettySize=auto;html=1;" edge="1" parent="WIyWlLk6GJQsqaUBKTNV-1" source="Fx8KJg7VZILLiWFmlo5e-37">
          <mxGeometry relative="1" as="geometry">
            <mxPoint x="200" y="860" as="targetPoint" />
          </mxGeometry>
        </mxCell>
        <mxCell id="Fx8KJg7VZILLiWFmlo5e-37" value="&quot;Saldo Insuficiente&quot;" style="shape=display;whiteSpace=wrap;html=1;" vertex="1" parent="WIyWlLk6GJQsqaUBKTNV-1">
          <mxGeometry x="325" y="830" width="120" height="60" as="geometry" />
        </mxCell>
        <mxCell id="Fx8KJg7VZILLiWFmlo5e-61" value="" style="edgeStyle=orthogonalEdgeStyle;rounded=0;orthogonalLoop=1;jettySize=auto;html=1;" edge="1" parent="WIyWlLk6GJQsqaUBKTNV-1" source="Fx8KJg7VZILLiWFmlo5e-41" target="Fx8KJg7VZILLiWFmlo5e-42">
          <mxGeometry relative="1" as="geometry" />
        </mxCell>
        <mxCell id="Fx8KJg7VZILLiWFmlo5e-41" value="saldo" style="shape=display;whiteSpace=wrap;html=1;" vertex="1" parent="WIyWlLk6GJQsqaUBKTNV-1">
          <mxGeometry x="125" y="920" width="120" height="50" as="geometry" />
        </mxCell>
        <mxCell id="Fx8KJg7VZILLiWFmlo5e-45" style="edgeStyle=orthogonalEdgeStyle;rounded=0;orthogonalLoop=1;jettySize=auto;html=1;entryX=0;entryY=0.5;entryDx=0;entryDy=0;" edge="1" parent="WIyWlLk6GJQsqaUBKTNV-1" source="Fx8KJg7VZILLiWFmlo5e-42" target="Fx8KJg7VZILLiWFmlo5e-11">
          <mxGeometry relative="1" as="geometry">
            <Array as="points">
              <mxPoint x="70" y="1050" />
              <mxPoint x="70" y="300" />
            </Array>
          </mxGeometry>
        </mxCell>
        <mxCell id="Fx8KJg7VZILLiWFmlo5e-62" style="edgeStyle=orthogonalEdgeStyle;rounded=0;orthogonalLoop=1;jettySize=auto;html=1;exitX=1;exitY=0.25;exitDx=0;exitDy=0;" edge="1" parent="WIyWlLk6GJQsqaUBKTNV-1" source="Fx8KJg7VZILLiWFmlo5e-42">
          <mxGeometry relative="1" as="geometry">
            <mxPoint x="230" y="1030" as="targetPoint" />
          </mxGeometry>
        </mxCell>
        <mxCell id="Fx8KJg7VZILLiWFmlo5e-42" value="Deseja Encerrar? (S/N)" style="shape=manualInput;whiteSpace=wrap;html=1;" vertex="1" parent="WIyWlLk6GJQsqaUBKTNV-1">
          <mxGeometry x="137.5" y="1010" width="95" height="80" as="geometry" />
        </mxCell>
        <mxCell id="Fx8KJg7VZILLiWFmlo5e-47" value="" style="edgeStyle=orthogonalEdgeStyle;rounded=0;orthogonalLoop=1;jettySize=auto;html=1;" edge="1" parent="WIyWlLk6GJQsqaUBKTNV-1" source="Fx8KJg7VZILLiWFmlo5e-46" target="WIyWlLk6GJQsqaUBKTNV-11">
          <mxGeometry relative="1" as="geometry" />
        </mxCell>
        <mxCell id="Fx8KJg7VZILLiWFmlo5e-46" value="&quot;Sistema Encerrado&quot;" style="shape=display;whiteSpace=wrap;html=1;" vertex="1" parent="WIyWlLk6GJQsqaUBKTNV-1">
          <mxGeometry x="125" y="1120" width="120" height="60" as="geometry" />
        </mxCell>
        <mxCell id="Fx8KJg7VZILLiWFmlo5e-50" value="&lt;font style=&quot;font-size: 19px;&quot;&gt;V&lt;/font&gt;" style="text;strokeColor=none;align=center;fillColor=none;html=1;verticalAlign=middle;whiteSpace=wrap;rounded=0;" vertex="1" parent="WIyWlLk6GJQsqaUBKTNV-1">
          <mxGeometry x="180" y="340" width="60" height="30" as="geometry" />
        </mxCell>
        <mxCell id="Fx8KJg7VZILLiWFmlo5e-51" value="&lt;font style=&quot;font-size: 19px;&quot;&gt;V&lt;/font&gt;" style="text;strokeColor=none;align=center;fillColor=none;html=1;verticalAlign=middle;whiteSpace=wrap;rounded=0;" vertex="1" parent="WIyWlLk6GJQsqaUBKTNV-1">
          <mxGeometry x="222.5" y="555" width="60" height="30" as="geometry" />
        </mxCell>
        <mxCell id="Fx8KJg7VZILLiWFmlo5e-52" value="&lt;font style=&quot;font-size: 19px;&quot;&gt;F&lt;/font&gt;" style="text;strokeColor=none;align=center;fillColor=none;html=1;verticalAlign=middle;whiteSpace=wrap;rounded=0;" vertex="1" parent="WIyWlLk6GJQsqaUBKTNV-1">
          <mxGeometry x="232.5" y="260" width="60" height="30" as="geometry" />
        </mxCell>
        <mxCell id="Fx8KJg7VZILLiWFmlo5e-53" value="&lt;font style=&quot;font-size: 19px;&quot;&gt;V&lt;/font&gt;" style="text;strokeColor=none;align=center;fillColor=none;html=1;verticalAlign=middle;whiteSpace=wrap;rounded=0;" vertex="1" parent="WIyWlLk6GJQsqaUBKTNV-1">
          <mxGeometry x="250" y="720" width="60" height="30" as="geometry" />
        </mxCell>
        <mxCell id="Fx8KJg7VZILLiWFmlo5e-54" value="&lt;font style=&quot;font-size: 19px;&quot;&gt;V&lt;/font&gt;" style="text;strokeColor=none;align=center;fillColor=none;html=1;verticalAlign=middle;whiteSpace=wrap;rounded=0;" vertex="1" parent="WIyWlLk6GJQsqaUBKTNV-1">
          <mxGeometry x="395" y="800" width="60" height="30" as="geometry" />
        </mxCell>
        <mxCell id="Fx8KJg7VZILLiWFmlo5e-55" value="&lt;font style=&quot;font-size: 19px;&quot;&gt;F&lt;/font&gt;" style="text;strokeColor=none;align=center;fillColor=none;html=1;verticalAlign=middle;whiteSpace=wrap;rounded=0;" vertex="1" parent="WIyWlLk6GJQsqaUBKTNV-1">
          <mxGeometry x="430" y="720" width="60" height="30" as="geometry" />
        </mxCell>
        <mxCell id="Fx8KJg7VZILLiWFmlo5e-57" value="&lt;font style=&quot;font-size: 19px;&quot;&gt;F&lt;/font&gt;" style="text;strokeColor=none;align=center;fillColor=none;html=1;verticalAlign=middle;whiteSpace=wrap;rounded=0;" vertex="1" parent="WIyWlLk6GJQsqaUBKTNV-1">
          <mxGeometry x="135" y="650" width="60" height="30" as="geometry" />
        </mxCell>
        <mxCell id="Fx8KJg7VZILLiWFmlo5e-59" value="&lt;font style=&quot;font-size: 19px;&quot;&gt;F&lt;/font&gt;" style="text;strokeColor=none;align=center;fillColor=none;html=1;verticalAlign=middle;whiteSpace=wrap;rounded=0;" vertex="1" parent="WIyWlLk6GJQsqaUBKTNV-1">
          <mxGeometry x="115" y="800" width="60" height="30" as="geometry" />
        </mxCell>
        <mxCell id="Fx8KJg7VZILLiWFmlo5e-60" style="edgeStyle=orthogonalEdgeStyle;rounded=0;orthogonalLoop=1;jettySize=auto;html=1;entryX=0;entryY=0;entryDx=60;entryDy=0;entryPerimeter=0;" edge="1" parent="WIyWlLk6GJQsqaUBKTNV-1" source="Fx8KJg7VZILLiWFmlo5e-18" target="Fx8KJg7VZILLiWFmlo5e-41">
          <mxGeometry relative="1" as="geometry" />
        </mxCell>
      </root>
    </mxGraphModel>
  </diagram>
</mxfile>
